<svg xmlns="http://www.w3.org/2000/svg" viewBox="0 0 800 500" role="img" aria-label="AI Quality-Assurance Platform banner">
  <rect width="800" height="500" fill="#16141f"/>
  <g stroke="#a78bfa" stroke-opacity="0.07">
    <path d="M0 100H800M0 200H800M0 300H800M0 400H800"/>
    <path d="M100 0V500M200 0V500M300 0V500M400 0V500M500 0V500M600 0V500M700 0V500"/>
  </g>
  <text x="56" y="96" font-family="Arial, sans-serif" font-size="13" letter-spacing="4" fill="#9691ab">QUEEN ONE · AGENTIC AI · 2026</text>
  <text x="52" y="190" font-family="Arial, sans-serif" font-size="76" font-weight="900" fill="#a78bfa">Sentinel</text>
  <text x="52" y="248" font-family="Arial, sans-serif" font-size="30" font-weight="900" fill="#ece9f7">AI Quality-Assurance Platform</text>
  <text x="54" y="296" font-family="Consolas, monospace" font-size="15" fill="#9691ab">validate AI-generated media against brand guidelines</text>
  <g font-family="Consolas, monospace" font-size="13">
    <rect x="52" y="360" rx="14" width="118" height="28" fill="#a78bfa" fill-opacity="0.15"/>
    <text x="66" y="379" fill="#c4b5fd">brand fit ✓</text>
    <rect x="182" y="360" rx="14" width="128" height="28" fill="#a78bfa" fill-opacity="0.15"/>
    <text x="196" y="379" fill="#c4b5fd">alignment ✓</text>
    <rect x="322" y="360" rx="14" width="142" height="28" fill="#a78bfa" fill-opacity="0.15"/>
    <text x="336" y="379" fill="#c4b5fd">consistency ✓</text>
  </g>
  <g transform="translate(540,90)">
    <rect width="150" height="190" rx="12" fill="#0b0a12" stroke="#a78bfa" stroke-opacity="0.35"/>
    <rect x="14" y="14" width="122" height="96" rx="6" fill="#a78bfa" fill-opacity="0.18"/>
    <circle cx="40" cy="46" r="12" fill="#a78bfa" fill-opacity="0.5"/>
    <path d="M22 96 L58 62 L84 84 L110 58 L128 74 L128 104 A6 6 0 0 1 122 110 L20 110 A6 6 0 0 1 14 104 Z" fill="#a78bfa" fill-opacity="0.45"/>
    <rect x="14" y="122" width="90" height="10" rx="5" fill="#9691ab" fill-opacity="0.4"/>
    <rect x="14" y="140" width="122" height="10" rx="5" fill="#9691ab" fill-opacity="0.25"/>
    <circle cx="126" cy="166" r="11" fill="#3ef08c" fill-opacity="0.9"/>
    <path d="M120.5 166 l4 4 l7 -8" stroke="#0b0a12" stroke-width="2.4" fill="none" stroke-linecap="round" stroke-linejoin="round"/>
    <g transform="translate(24,-24)">
      <rect width="150" height="190" rx="12" fill="#0b0a12" stroke="#a78bfa" stroke-opacity="0.55"/>
      <rect x="14" y="14" width="122" height="96" rx="6" fill="#a78bfa" fill-opacity="0.28"/>
      <circle cx="44" cy="48" r="14" fill="#c4b5fd" fill-opacity="0.6"/>
      <path d="M22 96 L62 58 L90 82 L116 54 L136 72 L136 104 A6 6 0 0 1 130 110 L20 110 A6 6 0 0 1 14 104 Z" fill="#a78bfa" fill-opacity="0.6"/>
      <rect x="14" y="122" width="100" height="10" rx="5" fill="#ece9f7" fill-opacity="0.5"/>
      <rect x="14" y="140" width="122" height="10" rx="5" fill="#9691ab" fill-opacity="0.35"/>
      <circle cx="126" cy="166" r="11" fill="#3ef08c"/>
      <path d="M120.5 166 l4 4 l7 -8" stroke="#0b0a12" stroke-width="2.4" fill="none" stroke-linecap="round" stroke-linejoin="round"/>
    </g>
  </g>
  <text x="56" y="452" font-family="Consolas, monospace" font-size="14" fill="#3ef08c">● proof-of-concept · in the Queen One product stack</text>
</svg>
